<?xml version="1.0" standalone="no"?>
<!DOCTYPE svg PUBLIC "-//W3C//DTD SVG 20010904//EN"
 "http://www.w3.org/TR/2001/REC-SVG-20010904/DTD/svg10.dtd">
<svg version="1.0" xmlns="http://www.w3.org/2000/svg"
 width="5000.000000pt" height="5000.000000pt" viewBox="0 0 5000.000000 5000.000000"
 preserveAspectRatio="xMidYMid meet">

<g transform="translate(0.000000,5000.000000) scale(0.100000,-0.100000)"
fill="#000000" stroke="none">
<path d="M18310 32624 c-547 -47 -906 -145 -1340 -365 -1015 -514 -1706 -1517
-1825 -2651 -19 -186 -19 -520 0 -701 142 -1338 1047 -2453 2327 -2867 745
-240 1582 -208 2307 90 1061 436 1827 1374 2040 2500 76 402 74 864 -5 1271
-103 532 -339 1039 -683 1469 -103 129 -322 352 -456 465 -508 427 -1116 690
-1780 770 -125 15 -492 27 -585 19z m1264 -1454 c332 -85 587 -370 637 -710
75 -514 -325 -979 -843 -981 -124 0 -206 13 -297 47 -281 106 -467 313 -549
609 -27 96 -23 327 6 428 78 273 272 483 535 582 155 58 347 67 511 25z"/>
<path d="M31420 32624 c-448 -39 -777 -114 -1105 -254 -1111 -473 -1863 -1442
-2045 -2635 -28 -178 -38 -592 -21 -782 66 -708 339 -1354 801 -1898 96 -113
327 -337 445 -431 466 -370 980 -601 1558 -699 383 -64 827 -59 1207 16 911
179 1708 724 2204 1509 226 357 386 761 465 1180 76 403 75 864 -5 1271 -181
934 -755 1751 -1579 2249 -401 241 -860 398 -1340 455 -125 15 -492 27 -585
19z m-455 -1453 c44 -12 126 -43 182 -71 164 -81 308 -230 387 -402 150 -323
84 -704 -164 -958 -123 -126 -245 -197 -418 -241 -107 -27 -281 -27 -396 0
-310 74 -553 313 -637 626 -31 116 -31 308 0 425 89 336 366 585 709 640 84
13 245 4 337 -19z"/>
</g>
</svg>
